<svg height="2238" width="720" xmlns="http://www.w3.org/2000/svg">
<rect height="2238" fill="#555" width="720"></rect>
<text fill="#7f7" font-family="Courier New" font-size="12" xml:space="preserve">
<tspan x="10" y="26"></tspan>
<tspan x="10" y="42">&gt; npmdoc-browser-sync-webpack-plugin@0.0.1 test /home/travis/build/npmdoc/node-npmdoc-browser-sy\</tspan>
<tspan x="10" y="58">nc-webpack-plugin</tspan>
<tspan x="10" y="74">&gt; (set -e; export PORT=$(utility2 shServerPortRandom); utility2 test test.js)</tspan>
<tspan x="10" y="90"></tspan>
<tspan x="10" y="106"></tspan>
<tspan x="10" y="122">[MODE_BUILD=npmTest] - 2017-04-04T01:12:27Z - npm-testing /home/travis/build/npmdoc/node-npmdoc-\</tspan>
<tspan x="10" y="138">browser-sync-webpack-plugin</tspan>
<tspan x="10" y="154"></tspan>
<tspan x="10" y="170"></tspan>
<tspan x="10" y="186">covering $ /home/travis/.nvm/versions/node/v6.10.1/bin/node /home/travis/build/npmdoc/node-npmdo\</tspan>
<tspan x="10" y="202">c-browser-sync-webpack-plugin/test.js</tspan>
<tspan x="10" y="218">merging file:///home/travis/build/npmdoc/node-npmdoc-browser-sync-webpack-plugin/tmp/build/test-\</tspan>
<tspan x="10" y="234">report.json to test-report</tspan>
<tspan x="10" y="250">&gt; server listening on http-port 54562</tspan>
<tspan x="10" y="266">created apidoc file:///home/travis/build/npmdoc/node-npmdoc-browser-sync-webpack-plugin/tmp/buil\</tspan>
<tspan x="10" y="282">d/apidoc.html</tspan>
<tspan x="10" y="298"></tspan>
<tspan x="10" y="314"></tspan>
<tspan x="10" y="330">browserTest - created electron entry-page /home/travis/build/npmdoc/node-npmdoc-browser-sync-web\</tspan>
<tspan x="10" y="346">pack-plugin/tmp/electron.15b36852b5c0.5e62f1f19ae39.html</tspan>
<tspan x="10" y="362"></tspan>
<tspan x="10" y="378">[node test-case 1 of 6 passed] - testCase_buildLib_default</tspan>
<tspan x="10" y="394">[node test-case 2 of 6 passed] - testCase_buildReadme_default</tspan>
<tspan x="10" y="410">[node test-case 3 of 6 passed] - testCase_buildTest_default</tspan>
<tspan x="10" y="426"></tspan>
<tspan x="10" y="442">browserTest - created electron entry-page /home/travis/build/npmdoc/node-npmdoc-browser-sync-web\</tspan>
<tspan x="10" y="458">pack-plugin/tmp/electron.15b36852b970.83d2f791b9493.html</tspan>
<tspan x="10" y="474"></tspan>
<tspan x="10" y="490">Xlib:  extension "RANDR" missing on display ":99.0".</tspan>
<tspan x="10" y="506">Xlib:  extension "RANDR" missing on display ":99.0".</tspan>
<tspan x="10" y="522">&gt; server listening on http-port 41616</tspan>
<tspan x="10" y="538">merging file:///home/travis/build/npmdoc/node-npmdoc-browser-sync-webpack-plugin/tmp/build/test-\</tspan>
<tspan x="10" y="554">report.json to test-report</tspan>
<tspan x="10" y="570">Xlib:  extension "RANDR" missing on display ":99.0".</tspan>
<tspan x="10" y="586">[4962:0404/011229:WARNING:audio_manager.cc(314)] Multiple instances of AudioManager detected</tspan>
<tspan x="10" y="602">[4962:0404/011229:WARNING:audio_manager.cc(275)] Multiple instances of AudioManager detected</tspan>
<tspan x="10" y="618">[4999:0404/011229:ERROR:sandbox_linux.cc(343)] InitializeSandbox() called with multiple threads \</tspan>
<tspan x="10" y="634">in process gpu-process. </tspan>
<tspan x="10" y="650">[4962:0404/011230:ERROR:browser_gpu_channel_host_factory.cc(131)] Failed to create channel.</tspan>
<tspan x="10" y="666">merging file:///home/travis/build/npmdoc/node-npmdoc-browser-sync-webpack-plugin/tmp/build/test-\</tspan>
<tspan x="10" y="682">report.json to test-report</tspan>
<tspan x="10" y="698">Xlib:  extension "RANDR" missing on display ":99.0".</tspan>
<tspan x="10" y="714">[4964:0404/011230:WARNING:audio_manager.cc(314)] Multiple instances of AudioManager detected</tspan>
<tspan x="10" y="730">[4964:0404/011230:WARNING:audio_manager.cc(275)] Multiple instances of AudioManager detected</tspan>
<tspan x="10" y="746">[5029:0404/011230:ERROR:sandbox_linux.cc(343)] InitializeSandbox() called with multiple threads \</tspan>
<tspan x="10" y="762">in process gpu-process. </tspan>
<tspan x="10" y="778">[4964:0404/011230:ERROR:browser_gpu_channel_host_factory.cc(131)] Failed to create channel.</tspan>
<tspan x="10" y="794"></tspan>
<tspan x="10" y="810">browserTest - opened url /home/travis/build/npmdoc/node-npmdoc-browser-sync-webpack-plugin/tmp/b\</tspan>
<tspan x="10" y="826">uild/apidoc.html</tspan>
<tspan x="10" y="842"></tspan>
<tspan x="10" y="858"></tspan>
<tspan x="10" y="874">browserTest - opened url http://127.0.0.1:54562?modeTest=1</tspan>
<tspan x="10" y="890"></tspan>
<tspan x="10" y="906">[4964:0404/011232:INFO:CONSOLE(245)] "----------|-----------|-----------|-----------|-----------\</tspan>
<tspan x="10" y="922">|</tspan>
<tspan x="10" y="938">File      |   % Stmts |% Branches |   % Funcs |   % Lines |</tspan>
<tspan x="10" y="954">----------|-----------|-----------|-----------|-----------|</tspan>
<tspan x="10" y="970">----------|-----------|-----------|-----------|-----------|</tspan>
<tspan x="10" y="986">All files |       100 |       100 |       100 |       100 |</tspan>
<tspan x="10" y="1002">----------|-----------|-----------|-----------|-----------|</tspan>
<tspan x="10" y="1018">", source: file:///home/travis/build/npmdoc/node-npmdoc-browser-sync-webpack-plugin/tmp/electron\</tspan>
<tspan x="10" y="1034">.15b36852b970.83d2f791b9493.html (245)</tspan>
<tspan x="10" y="1050">[4964:0404/011232:INFO:CONSOLE(245)] "created coverage file:///tmp/build/coverage.html/index.htm\</tspan>
<tspan x="10" y="1066">l", source: file:///home/travis/build/npmdoc/node-npmdoc-browser-sync-webpack-plugin/tmp/electro\</tspan>
<tspan x="10" y="1082">n.15b36852b970.83d2f791b9493.html (245)</tspan>
<tspan x="10" y="1098">[node test-case 4 of 6 passed] - testCase_buildApp_default</tspan>
<tspan x="10" y="1114"></tspan>
<tspan x="10" y="1130">browserTest - created screenCapture file:///home/travis/build/npmdoc/node-npmdoc-browser-sync-we\</tspan>
<tspan x="10" y="1146">bpack-plugin/tmp/build/screenCapture.npmTest.browser._2Fhome_2Ftravis_2Fbuild_2Fnpmdoc_2Fnode-np\</tspan>
<tspan x="10" y="1162">mdoc-browser-sync-webpack-plugin_2Ftmp_2Fbuild_2Fapidoc.html.png</tspan>
<tspan x="10" y="1178"></tspan>
<tspan x="10" y="1194">browserTest - created screenCapture file:///home/travis/build/npmdoc/node-npmdoc-browser-sync-we\</tspan>
<tspan x="10" y="1210">bpack-plugin/tmp/build/screenCapture.npmTest.browser._2Fhome_2Ftravis_2Fbuild_2Fnpmdoc_2Fnode-np\</tspan>
<tspan x="10" y="1226">mdoc-browser-sync-webpack-plugin_2Ftmp_2Fbuild_2Fapidoc.html.html</tspan>
<tspan x="10" y="1242"></tspan>
<tspan x="10" y="1258">browserTest - exit-code 0 - /home/travis/build/npmdoc/node-npmdoc-browser-sync-webpack-plugin/tm\</tspan>
<tspan x="10" y="1274">p/build/apidoc.html</tspan>
<tspan x="10" y="1290"></tspan>
<tspan x="10" y="1306">[node test-case 5 of 6 passed] - testCase_buildApidoc_default</tspan>
<tspan x="10" y="1322"></tspan>
<tspan x="10" y="1338">browserTest - created screenCapture file:///home/travis/build/npmdoc/node-npmdoc-browser-sync-we\</tspan>
<tspan x="10" y="1354">bpack-plugin/tmp/build/screenCapture.npmTest.browser..png</tspan>
<tspan x="10" y="1370"></tspan>
<tspan x="10" y="1386">browserTest - created screenCapture file:///home/travis/build/npmdoc/node-npmdoc-browser-sync-we\</tspan>
<tspan x="10" y="1402">bpack-plugin/tmp/build/screenCapture.npmTest.browser..html</tspan>
<tspan x="10" y="1418"></tspan>
<tspan x="10" y="1434">browserTest - exit-code 0 - http://127.0.0.1:54562?modeTest=1</tspan>
<tspan x="10" y="1450"></tspan>
<tspan x="10" y="1466"></tspan>
<tspan x="10" y="1482">browserTest - merged coverage from /home/travis/build/npmdoc/node-npmdoc-browser-sync-webpack-pl\</tspan>
<tspan x="10" y="1498">ugin/tmp/coverage.npmTest.browser.%2F.json</tspan>
<tspan x="10" y="1514"></tspan>
<tspan x="10" y="1530"></tspan>
<tspan x="10" y="1546">browserTest - merging test-report from /home/travis/build/npmdoc/node-npmdoc-browser-sync-webpac\</tspan>
<tspan x="10" y="1562">k-plugin/tmp/test-report.npmTest.browser.%2F.json</tspan>
<tspan x="10" y="1578"></tspan>
<tspan x="10" y="1594">[node test-case 6 of 6 passed] - testCase_webpage_default</tspan>
<tspan x="10" y="1610">------------------------------------------------|-----------|-----------|-----------|-----------\</tspan>
<tspan x="10" y="1626">|</tspan>
<tspan x="10" y="1642">File                                            |   % Stmts |% Branches |   % Funcs |   % Lines \</tspan>
<tspan x="10" y="1658">|</tspan>
<tspan x="10" y="1674">------------------------------------------------|-----------|-----------|-----------|-----------\</tspan>
<tspan x="10" y="1690">|</tspan>
<tspan x="10" y="1706">   node-npmdoc-browser-sync-webpack-plugin/     |       100 |       100 |       100 |       100 \</tspan>
<tspan x="10" y="1722">|</tspan>
<tspan x="10" y="1738">      example.js                                |       100 |       100 |       100 |       100 \</tspan>
<tspan x="10" y="1754">|</tspan>
<tspan x="10" y="1770">      lib.npmdoc_browser_sync_webpack_plugin.js |       100 |       100 |       100 |       100 \</tspan>
<tspan x="10" y="1786">|</tspan>
<tspan x="10" y="1802">      test.js                                   |       100 |       100 |       100 |       100 \</tspan>
<tspan x="10" y="1818">|</tspan>
<tspan x="10" y="1834">------------------------------------------------|-----------|-----------|-----------|-----------\</tspan>
<tspan x="10" y="1850">|</tspan>
<tspan x="10" y="1866">All files                                       |       100 |       100 |       100 |       100 \</tspan>
<tspan x="10" y="1882">|</tspan>
<tspan x="10" y="1898">------------------------------------------------|-----------|-----------|-----------|-----------\</tspan>
<tspan x="10" y="1914">|</tspan>
<tspan x="10" y="1930"></tspan>
<tspan x="10" y="1946">created coverage file:///home/travis/build/npmdoc/node-npmdoc-browser-sync-webpack-plugin/tmp/bu\</tspan>
<tspan x="10" y="1962">ild/coverage.html/index.html</tspan>
<tspan x="10" y="1978">merging file:///home/travis/build/npmdoc/node-npmdoc-browser-sync-webpack-plugin/tmp/build/test-\</tspan>
<tspan x="10" y="1994">report.json to test-report</tspan>
<tspan x="10" y="2010"></tspan>
<tspan x="10" y="2026">-------------------------------------------------------</tspan>
<tspan x="10" y="2042">| test-report - buildNpmdoc - node - linux v6.10.1 - 2017-04-04T01:12:11.605Z</tspan>
<tspan x="10" y="2058">|   27618 ms            0 failed        6 passed      |</tspan>
<tspan x="10" y="2074">-------------------------------------------------------</tspan>
<tspan x="10" y="2090"></tspan>
<tspan x="10" y="2106">created test-report file:///home/travis/build/npmdoc/node-npmdoc-browser-sync-webpack-plugin/tmp\</tspan>
<tspan x="10" y="2122">/build/test-report.html</tspan>
<tspan x="10" y="2138"></tspan>
<tspan x="10" y="2154"></tspan>
<tspan x="10" y="2170">npmTest - 0 failed tests</tspan>
<tspan x="10" y="2186"></tspan>
<tspan x="10" y="2202"></tspan>
<tspan x="10" y="2218">[MODE_BUILD=npmTest] - 2017-04-04T01:12:42Z - EXIT_CODE - 0</tspan>
</text>
</svg>
